<svg version="1.1" id="Layer_1" xmlns="http://www.w3.org/2000/svg" xmlns:xlink="http://www.w3.org/1999/xlink" x="0px" y="0px"
	 width="100%" viewBox="0 0 1024 1024" enable-background="new 0 0 1024 1024" xml:space="preserve">
<path fill="#000000" opacity="1.000000" stroke="none" 
	d="
M576.703247,503.765747 
	C567.271057,509.465973 558.200928,515.069885 548.977112,520.408325 
	C546.004272,522.128967 544.302307,524.048950 543.886597,527.658325 
	C542.519409,539.527954 539.091125,550.767639 532.415588,560.839539 
	C529.003357,565.987854 524.950623,570.494751 519.181030,574.530457 
	C514.072876,564.132263 508.568604,554.687500 510.090668,542.367310 
	C493.142120,553.126404 476.344452,563.044312 465.773132,580.279663 
	C457.415161,593.906433 458.314392,610.446228 467.879974,622.924561 
	C473.295166,629.988647 480.667236,633.494995 489.293060,634.290894 
	C493.662445,634.694031 497.200531,631.984131 500.607117,629.597595 
	C510.972198,622.336182 521.072327,614.671509 532.761780,609.523071 
	C538.119812,607.163269 543.598938,605.246338 549.406372,604.396667 
	C554.164673,603.700562 555.143982,604.635864 553.875305,609.015381 
	C549.073364,625.592041 546.097717,642.872131 535.659546,657.316528 
	C534.127136,659.437134 535.151672,661.046265 536.335815,662.728943 
	C545.616394,675.916016 550.951172,690.658813 553.621704,706.462097 
	C554.572998,712.091431 553.820740,712.783081 548.019043,711.954224 
	C531.691162,709.621643 516.932495,703.052734 503.345795,694.178345 
	C491.777924,686.622620 479.424042,681.574097 466.362457,677.262695 
	C423.619873,663.154114 394.537537,634.694214 381.432068,591.403015 
	C377.231659,577.527771 373.179932,563.999939 365.864716,551.285889 
	C359.794342,540.735474 358.007111,528.817078 361.798584,516.555481 
	C364.799469,506.850708 371.125977,499.634338 378.723877,493.574097 
	C386.615692,487.279388 392.805450,479.977051 396.379456,470.497620 
	C397.977783,466.258362 398.710938,462.121399 395.764374,458.160645 
	C394.104645,455.929688 395.317383,454.582458 397.025299,453.171387 
	C401.418030,449.542084 405.250763,445.691193 400.302368,439.923737 
	C409.864349,433.323639 409.864349,433.323639 407.146545,420.572388 
	C411.904785,419.127197 417.086151,418.288116 420.135376,413.477783 
	C423.418823,408.297974 420.425690,403.570251 418.701813,397.801483 
	C439.510864,397.048859 457.941071,402.195587 477.097595,411.922211 
	C428.309418,439.022461 394.615143,476.224945 385.325836,531.672729 
	C389.603149,518.882874 394.491241,506.322968 401.018036,494.346130 
	C417.828430,463.498657 441.814301,439.820648 472.076385,422.397705 
	C502.031799,405.151337 534.289429,395.732422 568.942566,394.555298 
	C585.667114,393.987183 602.179077,395.272949 618.500061,398.848389 
	C628.253052,400.984924 629.605103,404.747223 624.120483,413.102905 
	C620.213806,419.054657 616.253967,424.996338 613.409729,432.176239 
	C618.098022,432.275604 621.546814,430.137360 625.236877,428.945312 
	C627.612488,428.177887 629.942932,427.254730 632.345947,426.590973 
	C637.920288,425.051239 641.525574,427.897034 641.283386,433.686066 
	C641.112427,437.774170 639.404724,441.418579 637.486084,444.938232 
	C629.698608,459.223755 618.191711,470.357971 606.372498,481.158173 
	C597.262634,489.482605 587.346436,496.819641 576.703247,503.765747 
M509.894470,446.007294 
	C510.566498,442.975342 511.238556,439.943390 512.077026,436.160522 
	C509.181915,437.198090 506.981323,437.858551 504.884613,438.760437 
	C495.848053,442.647522 487.121490,447.149048 478.752686,452.322266 
	C447.866547,471.414703 423.639465,496.420105 410.859222,530.982239 
	C398.118378,565.437805 399.350922,598.849243 420.648499,630.060852 
	C426.459656,638.577087 433.729492,645.668396 443.570770,651.980774 
	C442.305756,648.867065 441.548706,647.053223 440.829224,645.224487 
	C437.124542,635.808594 435.155029,626.091125 436.031006,615.939453 
	C437.859161,594.753357 447.531281,577.344910 461.876953,562.124023 
	C479.075348,543.876404 500.641479,531.909424 522.158325,519.858582 
	C533.692322,513.398804 545.447327,507.321899 557.088135,499.929871 
	C522.190308,494.752167 507.066376,469.042511 509.894470,446.007294 
M552.957642,453.479187 
	C556.878357,461.759644 563.332153,467.501038 571.412415,471.873779 
	C564.247070,473.997162 557.965027,472.195618 552.647583,467.564850 
	C541.493591,457.851349 538.330139,445.214233 540.127808,430.983826 
	C540.312195,429.523804 541.201843,427.894714 539.802002,426.781708 
	C538.369507,425.642731 536.584656,426.167511 535.052307,426.832184 
	C533.847351,427.354828 532.712097,428.103119 531.658386,428.899902 
	C521.411682,436.648102 518.512634,450.366882 524.393860,463.112823 
	C534.655151,485.351349 560.927917,492.984924 583.874512,480.385406 
	C598.313293,472.457367 609.511475,460.923309 619.588013,448.163208 
	C620.532593,446.967133 621.164062,445.523895 622.241150,443.681885 
	C614.715149,446.128723 607.975952,448.514496 601.118530,450.489624 
	C595.303528,452.164520 592.720520,449.462280 594.395508,443.725342 
	C596.877319,435.225159 600.414307,427.165924 604.779236,419.458405 
	C605.619080,417.975372 607.287231,416.701935 606.554626,414.618805 
	C598.928101,413.967285 595.545288,415.883148 592.360352,422.443848 
	C590.142761,427.011902 586.502258,429.770691 581.358093,429.743439 
	C576.070618,429.715454 572.149292,427.155975 570.040955,422.182404 
	C569.334412,420.515656 569.074707,418.707764 566.678101,418.400330 
	C560.434814,417.599457 553.240417,421.924744 551.434021,427.954041 
	C548.919373,436.347534 549.037903,444.671509 552.957642,453.479187 
M451.646027,635.801575 
	C457.175079,652.671875 468.459778,663.719482 485.348389,669.078613 
	C487.918274,669.894043 490.557678,670.491089 493.047638,668.913269 
	C496.699890,666.598938 498.234344,659.936707 496.970093,654.382690 
	C495.795502,649.222351 492.601959,647.687866 487.666382,647.282349 
	C472.384155,646.026978 460.662537,638.785950 452.913727,625.410034 
	C451.941650,623.732117 451.074158,621.993652 449.691406,619.411560 
	C449.014069,625.462769 450.319397,630.236938 451.646027,635.801575 
M576.266541,410.664581 
	C573.994202,412.229584 573.421021,414.298035 574.982727,416.559082 
	C576.050720,418.105316 577.685303,419.038727 579.662598,417.961090 
	C581.501465,416.958862 582.929504,415.505737 582.300476,413.244873 
	C581.564392,410.599030 579.627747,409.685883 576.266541,410.664581 
z"/>
<path fill="#000000" opacity="1.000000" stroke="none" 
	d="
M298.914276,582.299072 
	C287.104370,584.846313 279.320221,578.721497 279.671143,567.056702 
	C280.471619,540.448059 285.872559,514.608765 293.599213,489.237335 
	C308.398743,440.641205 332.910217,397.464294 367.414917,360.220276 
	C408.761810,315.590851 459.290680,286.365692 518.629028,272.741241 
	C550.312927,265.466461 582.374023,263.345886 614.829041,266.484100 
	C634.783813,268.413666 654.322083,272.057281 673.507507,277.755615 
	C681.667603,280.179260 682.266113,281.089844 682.259155,289.697815 
	C682.234741,320.193542 682.256836,350.689270 682.198975,381.184906 
	C682.194885,383.364319 682.982056,385.908844 680.084045,387.268463 
	C675.239563,389.541290 673.017090,388.173889 673.011963,382.691925 
	C672.988403,357.695526 672.999084,332.699066 672.937561,307.702789 
	C672.931213,305.110199 673.518005,302.385925 671.811096,299.585083 
	C665.879272,300.814514 659.923645,302.172577 653.920654,303.272339 
	C621.694336,309.176331 590.264771,305.207703 559.466675,295.061584 
	C554.544739,293.440155 551.323608,294.207092 547.378479,297.334381 
	C524.937439,315.122986 499.201752,326.148285 471.646606,333.222809 
	C461.497559,335.828491 451.266754,338.079559 440.868103,339.470001 
	C437.992035,339.854584 436.193085,341.474213 434.603577,343.854492 
	C414.426025,374.070740 393.455627,403.707458 369.881531,431.413483 
	C366.211670,435.726562 362.461365,439.974823 358.638702,444.152771 
	C356.488220,446.503174 355.880707,448.173706 358.953857,450.562073 
	C368.027618,457.614136 371.031372,467.075867 368.192413,478.102692 
	C365.411316,488.904816 358.001526,495.000793 347.126068,496.808960 
	C339.851074,498.018585 333.268890,496.085541 327.456665,491.570068 
	C325.778625,490.266418 324.167450,488.876648 322.049133,487.134430 
	C318.370972,495.590515 317.129883,504.129242 315.415222,512.499634 
	C311.738342,530.449341 309.513763,548.576355 309.144409,566.928345 
	C309.004791,573.865112 306.525543,579.652466 298.914276,582.299072 
M386.867767,395.403412 
	C400.134766,377.880585 412.904846,360.003326 425.010529,341.658295 
	C426.262543,339.760986 428.527679,337.914185 426.911743,335.064911 
	C404.852203,342.052185 342.272858,419.630585 338.049622,445.055145 
	C343.095917,445.506805 344.189240,445.105377 347.706512,441.634552 
	C361.969360,427.560059 374.384949,411.917328 386.867767,395.403412 
M522.631226,303.101379 
	C529.609192,298.871490 536.501038,294.503082 542.856384,289.370544 
	C544.571472,287.985474 547.383972,286.579285 546.213501,283.883667 
	C544.983154,281.050171 542.192993,282.517334 540.012085,282.927368 
	C521.635376,286.382172 503.925568,292.078125 486.727814,299.312408 
	C470.132324,306.293335 454.237457,314.655762 439.349030,324.835449 
	C437.921906,325.811249 435.851288,326.737976 436.710266,329.063354 
	C437.348236,330.790314 439.036774,330.740234 440.566193,330.483276 
	C469.107758,325.688507 496.755005,318.188293 522.631226,303.101379 
M603.449646,295.792389 
	C626.961060,298.175903 650.075928,297.138794 672.603210,289.065308 
	C671.882080,286.649414 670.877136,286.545197 669.896240,286.297852 
	C633.718567,277.174927 597.117798,274.796509 560.077148,279.370453 
	C558.365479,279.581848 556.661682,279.856140 556.487671,282.051453 
	C556.319946,284.166718 557.898438,284.926392 559.495056,285.502106 
	C573.457642,290.536957 587.707703,294.376617 603.449646,295.792389 
M347.778687,462.628723 
	C342.474670,460.863647 337.866119,462.007294 335.580261,465.945770 
	C333.294067,469.884766 333.349945,473.900238 336.363098,477.491608 
	C340.009399,481.837585 346.617065,481.942108 350.437469,477.860352 
	C354.912292,473.079376 354.183197,467.670013 347.778687,462.628723 
z"/>
<path fill="#000000" opacity="1.000000" stroke="none" 
	d="
M426.588074,725.593018 
	C417.440491,723.320129 408.778473,720.885193 401.138367,715.882080 
	C392.520020,710.238464 392.931732,703.780212 402.194885,699.106079 
	C413.838654,693.230774 426.568298,691.508789 439.251251,689.701660 
	C443.971954,689.028931 448.713684,687.971558 453.905396,689.120789 
	C452.533203,691.026978 450.668518,691.036194 448.997101,691.467529 
	C441.742188,693.340149 434.498138,695.272583 427.687042,698.469177 
	C425.285126,699.596497 422.560150,700.871399 422.518585,703.977844 
	C422.476624,707.113342 425.234833,708.400024 427.597015,709.570984 
	C438.813446,715.131287 451.034698,716.897583 463.222321,718.617920 
	C485.374603,721.744751 507.689209,722.455933 529.989929,721.556213 
	C551.585449,720.684875 573.197510,719.223206 594.043762,712.683655 
	C596.731018,711.840637 599.363647,710.728760 601.877930,709.457275 
	C604.080750,708.343384 606.552551,707.073181 606.531250,704.115540 
	C606.511292,701.336182 604.041260,700.307251 602.030518,699.247864 
	C595.806335,695.968506 589.068420,694.082275 582.304504,692.289551 
	C579.457153,691.534912 576.635986,690.681335 573.971069,689.920776 
	C573.885376,688.299683 574.614868,687.973145 575.516418,688.059387 
	C589.762512,689.423035 603.984131,690.936035 617.671326,695.479431 
	C621.472595,696.741333 625.207520,698.136780 628.530701,700.451660 
	C634.865356,704.864136 635.146057,710.422913 628.958679,714.970520 
	C620.448486,721.225342 610.385437,723.827148 600.359131,726.286560 
	C579.264709,731.460999 557.718201,733.237061 536.103699,734.280457 
	C515.794983,735.260925 495.484497,734.911499 475.230957,733.213379 
	C458.990173,731.851746 442.835114,729.699524 426.588074,725.593018 
z"/>
<path fill="#000000" opacity="1.000000" stroke="none" 
	d="
M673.028198,463.000000 
	C673.012634,447.672241 672.972839,432.844482 672.994019,418.016785 
	C673.003662,411.252808 674.359497,410.183014 681.554321,411.023987 
	C682.697449,412.651886 682.214233,414.541138 682.216492,416.321594 
	C682.247131,440.812531 682.268494,465.303558 682.201050,489.794342 
	C682.191528,493.249664 682.756531,496.009766 685.500122,498.662079 
	C690.863525,503.847015 690.594421,510.497192 685.096619,515.806763 
	C682.963684,517.866638 682.182922,519.982178 682.211975,522.832886 
	C682.315491,532.994629 682.433533,543.162292 682.198608,553.319702 
	C681.978516,562.836609 674.968323,570.285767 665.863098,571.241516 
	C656.570496,572.216980 648.055115,566.765320 646.000366,558.119324 
	C643.934082,549.424316 645.664368,540.699646 646.478516,531.789978 
	C652.112305,537.513672 655.854553,544.354614 659.983948,550.701294 
	C658.417358,553.124817 656.537598,551.069153 654.798645,552.089539 
	C653.427917,555.983643 655.090149,558.963379 658.508789,561.025146 
	C662.509094,563.437683 666.510132,563.154663 669.974609,559.870178 
	C672.516479,557.460388 673.638428,554.318481 673.572876,550.843384 
	C673.387573,541.019470 673.078674,531.197876 672.925842,521.373596 
	C672.891052,519.133118 671.772278,517.753540 670.299988,516.276794 
	C664.218750,510.177429 664.267334,503.336029 670.645874,497.670746 
	C672.702698,495.843933 673.016174,493.869873 673.012939,491.489532 
	C673.000427,482.159729 673.020752,472.829834 673.028198,463.000000 
M677.701660,504.376678 
	C675.396851,504.930603 674.057434,506.229584 675.491638,508.520233 
	C676.479248,510.097717 678.376404,510.343536 679.680115,508.892456 
	C681.415405,506.961151 680.720093,505.347015 677.701660,504.376678 
z"/>
<path fill="#000000" opacity="1.000000" stroke="none" 
	d="
M482.099335,759.232666 
	C464.154968,756.688782 446.851044,753.430908 430.530396,746.291321 
	C427.263885,744.862366 427.278015,744.830017 425.188385,742.402710 
	C425.859375,741.354309 426.973755,741.564819 427.876251,741.675110 
	C486.840942,748.884094 545.822083,750.826294 605.537109,740.944824 
	C604.288330,745.259949 601.668152,745.829895 599.540833,746.734375 
	C585.355408,752.765320 570.476013,756.211670 555.255554,758.298706 
	C534.902466,761.089539 514.471985,761.641541 493.984863,760.255127 
	C490.169250,759.996948 486.363129,759.598633 482.099335,759.232666 
z"/>
<path fill="#000000" opacity="1.000000" stroke="none" 
	d="
M711.051880,297.846619 
	C726.250549,305.935455 738.110107,316.652252 743.759094,333.070831 
	C751.831055,356.532013 743.224731,378.187073 721.163940,390.118530 
	C708.718445,396.849609 695.091187,399.985474 681.493652,403.200165 
	C670.795715,405.729309 660.100647,408.225159 650.680786,414.297241 
	C648.191956,415.901520 645.818970,415.730988 644.199036,413.139709 
	C642.587036,410.561340 643.599365,408.307037 645.871643,406.638733 
	C652.015503,402.127960 659.098511,399.687469 666.340210,397.708984 
	C680.753784,393.770966 695.714966,391.775238 709.530945,385.728577 
	C722.135742,380.212006 733.193359,372.725006 736.596252,358.415680 
	C740.671204,341.280151 733.825317,327.441467 721.549194,315.943207 
	C714.929871,309.743408 707.029602,305.399536 698.594421,302.064575 
	C697.202759,301.514343 695.809326,300.949341 694.476807,300.272827 
	C692.054077,299.042755 691.036926,297.006714 692.087158,294.478241 
	C693.147339,291.926178 695.417236,291.168579 697.895508,292.146179 
	C702.224304,293.853790 706.449890,295.823151 711.051880,297.846619 
z"/>
<path fill="#000000" opacity="1.000000" stroke="none" 
	d="
M332.596375,701.690186 
	C333.909576,697.356323 336.992371,695.130737 340.355774,693.169922 
	C354.015900,685.206543 369.251160,682.389893 384.521942,679.752502 
	C388.777740,679.017517 393.100983,678.642822 397.405945,678.237427 
	C399.115814,678.076355 401.021393,677.391846 403.010681,679.595276 
	C396.911499,681.514587 391.165253,683.304626 385.430878,685.132080 
	C378.262634,687.416443 371.335358,690.284790 365.067810,694.481934 
	C356.636536,700.128113 356.301727,706.029175 364.141907,712.423950 
	C369.869324,717.095459 376.606934,720.048035 383.393585,722.866272 
	C385.970734,723.936462 388.850494,724.375427 391.256927,726.368225 
	C389.923676,728.157227 388.123718,727.453064 386.686890,727.253784 
	C372.654327,725.307312 358.725311,722.875916 345.668579,717.025452 
	C342.165497,715.455750 338.813568,713.566589 335.977051,710.930847 
	C333.417511,708.552551 331.818634,705.734375 332.596375,701.690186 
z"/>
<path fill="#000000" opacity="1.000000" stroke="none" 
	d="
M689.618530,711.628784 
	C678.274536,720.038452 665.165100,722.616821 652.127930,725.242920 
	C646.828430,726.310486 641.468933,727.620728 635.841431,727.195496 
	C636.114563,724.496216 638.211060,724.704407 639.575745,724.165344 
	C646.237732,721.533813 652.819824,718.760803 658.887146,714.897034 
	C670.786499,707.319458 670.558655,699.623047 658.185608,692.721741 
	C648.818298,687.496948 638.618713,684.422729 628.426758,681.339294 
	C626.711487,680.820374 624.834290,680.685059 623.163879,679.096619 
	C626.021667,676.843567 628.984009,678.581543 631.608887,678.807617 
	C648.408447,680.254333 664.836487,683.484802 680.363220,690.352844 
	C682.936951,691.491333 685.443298,692.864990 687.790100,694.418091 
	C695.016541,699.200012 695.671509,704.883545 689.618530,711.628784 
z"/>
<path fill="#000000" opacity="1.000000" stroke="none" 
	d="
M446.549591,502.563171 
	C464.823212,486.951324 500.395233,480.375458 511.099152,483.788818 
	C507.335846,490.405090 507.951691,496.226898 515.755981,500.561340 
	C508.611969,508.953583 500.742340,515.163391 490.607910,518.212524 
	C485.748413,519.674622 480.812256,519.758667 475.837738,518.554810 
	C464.551178,515.823547 453.725372,511.820312 443.157532,507.563293 
	C443.072998,504.711884 445.087189,504.059174 446.549591,502.563171 
z"/>
</svg>